HIERARCHY
ROOT hip
{
  OFFSET 0.00112043 5.09927 -9.65472
  CHANNELS 6 Xposition Yposition Zposition Zrotation Xrotation Yrotation
  JOINT abdomen
  {
    OFFSET 0 -1.186 -1.5018
    CHANNELS 3 Zrotation Xrotation Yrotation
    JOINT abdomen2
    {
      OFFSET 0 9.964 0.2134
      CHANNELS 3 Zrotation Xrotation Yrotation
      JOINT chest
      {
        OFFSET 0 13.134 -3.2573
        CHANNELS 3 Zrotation Xrotation Yrotation
        JOINT neck
        {
          OFFSET 0 20.686 -1.6905
          CHANNELS 3 Zrotation Xrotation Yrotation
          JOINT head
          {
            OFFSET 0 7.238 -0.1237
            CHANNELS 3 Zrotation Xrotation Yrotation
            End Site
            {
              OFFSET 0 0 0
            }
          }
        }
        JOINT lCollar
        {
          OFFSET 1.7069 20.075 5.0056
          CHANNELS 3 Zrotation Xrotation Yrotation
          JOINT lShldr
          {
            OFFSET 13.6458 -0.047 -4.849
            CHANNELS 3 Zrotation Xrotation Yrotation
            JOINT lForeArm
            {
              OFFSET 28.3255 -0.9759 2.2888
              CHANNELS 3 Zrotation Xrotation Yrotation
              JOINT lHand
              {
                OFFSET 22.1583 -0.53 10.8316
                CHANNELS 3 Zrotation Xrotation Yrotation
                JOINT lThumb1
                {
                  OFFSET 0.786 0.112 2.5817
                  CHANNELS 3 Zrotation Xrotation Yrotation
                  JOINT lThumb2
                  {
                    OFFSET 0.3601 -0.878 4.2331
                    CHANNELS 3 Zrotation Xrotation Yrotation
                    JOINT lThumb2_End
                    {
                      OFFSET 1.8127 -1.216 2.2227
                      CHANNELS 3 Zrotation Xrotation Yrotation
                      End Site
                      {
                        OFFSET 0.0181 -0.0122 0.0222
                      }
                    }
                  }
                }
                JOINT lCarpal1
                {
                  OFFSET 0.9571 1.114 1.7695
                  CHANNELS 3 Zrotation Xrotation Yrotation
                  JOINT lIndex1
                  {
                    OFFSET 4.1246 0.487 4.1451
                    CHANNELS 3 Zrotation Xrotation Yrotation
                    JOINT lIndex2
                    {
                      OFFSET 3.4052 -1.454 2.7682
                      CHANNELS 3 Zrotation Xrotation Yrotation
                      JOINT lIndex2_End
                      {
                        OFFSET 1.4531 -1.795 1.2713
                        CHANNELS 3 Zrotation Xrotation Yrotation
                        End Site
                        {
                          OFFSET 0.0145 -0.0179 0.0127
                        }
                      }
                    }
                  }
                  JOINT lMid1
                  {
                    OFFSET 5.6954 0.21 2.1184
                    CHANNELS 3 Zrotation Xrotation Yrotation
                    JOINT lMid2
                    {
                      OFFSET 3.9766 -1.54 2.3863
                      CHANNELS 3 Zrotation Xrotation Yrotation
                      JOINT lMid2_End
                      {
                        OFFSET 1.4042 -1.926 1.125
                        CHANNELS 3 Zrotation Xrotation Yrotation
                        End Site
                        {
                          OFFSET 0.014 -0.0193 0.0113
                        }
                      }
                    }
                  }
                }
                JOINT lCarpal2
                {
                  OFFSET 2.0956 0.66 -0.3894
                  CHANNELS 3 Zrotation Xrotation Yrotation
                  JOINT lRing1
                  {
                    OFFSET 5.0395 -0.09 2.4971
                    CHANNELS 3 Zrotation Xrotation Yrotation
                    JOINT lRing2
                    {
                      OFFSET 3.7921 -1.552 1.4806
                      CHANNELS 3 Zrotation Xrotation Yrotation
                      JOINT lRing2_End
                      {
                        OFFSET 1.4655 -1.808 0.9609
                        CHANNELS 3 Zrotation Xrotation Yrotation
                        End Site
                        {
                          OFFSET 0.0147 -0.0181 0.0096
                        }
                      }
                    }
                  }
                  JOINT lPinky1
                  {
                    OFFSET 4.9141 -1.269 0.3591
                    CHANNELS 3 Zrotation Xrotation Yrotation
                    JOINT lPinky2
                    {
                      OFFSET 3.1477 -1.685 0.8462
                      CHANNELS 3 Zrotation Xrotation Yrotation
                      JOINT lPinky2_End
                      {
                        OFFSET 0.8055 -1.585 0.7955
                        CHANNELS 3 Zrotation Xrotation Yrotation
                        End Site
                        {
                          OFFSET 0.0081 -0.0158 0.008
                        }
                      }
                    }
                  }
                }
              }
            }
          }
        }
        JOINT rCollar
        {
          OFFSET -1.7069 20.075 5.0056
          CHANNELS 3 Zrotation Xrotation Yrotation
          JOINT rShldr
          {
            OFFSET -13.6458 -0.047 -4.849
            CHANNELS 3 Zrotation Xrotation Yrotation
            JOINT rForeArm
            {
              OFFSET -28.3255 -0.9759 2.2888
              CHANNELS 3 Zrotation Xrotation Yrotation
              JOINT rHand
              {
                OFFSET -22.1583 -0.53 10.8316
                CHANNELS 3 Zrotation Xrotation Yrotation
                JOINT rThumb1
                {
                  OFFSET -0.786 0.112 2.5817
                  CHANNELS 3 Zrotation Xrotation Yrotation
                  JOINT rThumb2
                  {
                    OFFSET -0.3601 -0.878 4.2331
                    CHANNELS 3 Zrotation Xrotation Yrotation
                    JOINT rThumb2_End
                    {
                      OFFSET -1.8127 -1.216 2.2227
                      CHANNELS 3 Zrotation Xrotation Yrotation
                      End Site
                      {
                        OFFSET -0.0181 -0.0122 0.0222
                      }
                    }
                  }
                }
                JOINT rCarpal1
                {
                  OFFSET -0.9571 1.114 1.7695
                  CHANNELS 3 Zrotation Xrotation Yrotation
                  JOINT rIndex1
                  {
                    OFFSET -4.1246 0.487 4.1451
                    CHANNELS 3 Zrotation Xrotation Yrotation
                    JOINT rIndex2
                    {
                      OFFSET -3.4052 -1.454 2.7682
                      CHANNELS 3 Zrotation Xrotation Yrotation
                      JOINT rIndex2_End
                      {
                        OFFSET -1.4531 -1.795 1.2713
                        CHANNELS 3 Zrotation Xrotation Yrotation
                        End Site
                        {
                          OFFSET -0.0145 -0.018 0.0127
                        }
                      }
                    }
                  }
                  JOINT rMid1
                  {
                    OFFSET -5.6954 0.21 2.1184
                    CHANNELS 3 Zrotation Xrotation Yrotation
                    JOINT rMid2
                    {
                      OFFSET -3.9766 -1.54 2.3863
                      CHANNELS 3 Zrotation Xrotation Yrotation
                      JOINT rMid2_End
                      {
                        OFFSET -1.4042 -1.926 1.125
                        CHANNELS 3 Zrotation Xrotation Yrotation
                        End Site
                        {
                          OFFSET -0.014 -0.0193 0.0113
                        }
                      }
                    }
                  }
                }
                JOINT rCarpal2
                {
                  OFFSET -2.0956 0.66 -0.3894
                  CHANNELS 3 Zrotation Xrotation Yrotation
                  JOINT rRing1
                  {
                    OFFSET -5.0395 -0.09 2.4971
                    CHANNELS 3 Zrotation Xrotation Yrotation
                    JOINT rRing2
                    {
                      OFFSET -3.7921 -1.552 1.4806
                      CHANNELS 3 Zrotation Xrotation Yrotation
                      JOINT rRing2_End
                      {
                        OFFSET -1.4655 -1.808 0.9609
                        CHANNELS 3 Zrotation Xrotation Yrotation
                        End Site
                        {
                          OFFSET -0.0147 -0.0181 0.0096
                        }
                      }
                    }
                  }
                  JOINT rPinky1
                  {
                    OFFSET -4.9141 -1.269 0.3592
                    CHANNELS 3 Zrotation Xrotation Yrotation
                    JOINT rPinky2
                    {
                      OFFSET -3.1477 -1.685 0.8462
                      CHANNELS 3 Zrotation Xrotation Yrotation
                      JOINT rPinky2_End
                      {
                        OFFSET -0.8055 -1.585 0.7955
                        CHANNELS 3 Zrotation Xrotation Yrotation
                        End Site
                        {
                          OFFSET -0.0081 -0.0158 0.008
                        }
                      }
                    }
                  }
                }
              }
            }
          }
        }
      }
    }
  }
  JOINT lThigh
  {
    OFFSET 8.367 -8.2066 0.5982
    CHANNELS 3 Zrotation Xrotation Yrotation
    JOINT lShin
    {
      OFFSET 2.1923 -43.463 -0.4932
      CHANNELS 3 Zrotation Xrotation Yrotation
      JOINT lFoot
      {
        OFFSET 0.7333 -45.8593 -2.6451
        CHANNELS 3 Zrotation Xrotation Yrotation
        End Site
        {
          OFFSET 2.6618 -4.2699 12.3931
        }
      }
    }
  }
  JOINT rThigh
  {
    OFFSET -8.367 -8.2066 0.5982
    CHANNELS 3 Zrotation Xrotation Yrotation
    JOINT rShin
    {
      OFFSET -2.1923 -43.463 -0.4931
      CHANNELS 3 Zrotation Xrotation Yrotation
      JOINT rFoot
      {
        OFFSET -0.7333 -45.8593 -2.6451
        CHANNELS 3 Zrotation Xrotation Yrotation
        End Site
        {
          OFFSET -2.6618 -4.2699 12.3931
        }
      }
    }
  }
}
MOTION
Frames:	4
Frame Time:	0.0333333
1.42192 3.93697 -11.1963 -47.1291 -89.9994 -0.12942 0.0322348 -0.308893 -9.88353 0.0109367 -0.618727 -19.7673 0.01095 -0.618715 -19.7673 1.04558 18.1865 -20.5536 20.2848 -10.4415 3.72395 -28.3861 -0.712984 2.45504 -43.6023 7.80243 -41.9968 -15.5149 23.7684 4.75491 -22.0099 16.5078 -8.1942 -2.02599e-007 -3.61069e-007 1.01856e-007 -1.32823e-007 -1.49531e-006 -2.01461e-006 -6.08151e-007 -8.56529e-007 -3.55878e-006 2.38542e-015 2.38542e-015 -3.18055e-015 -2.02599e-007 -3.61069e-007 1.01856e-007 -1.32823e-007 -1.49531e-006 -2.01461e-006 -6.08151e-007 -8.56529e-007 -3.55878e-006 -2.02599e-007 -3.61069e-007 1.01856e-007 -1.32823e-007 -1.49531e-006 -2.01461e-006 -6.08151e-007 -8.56529e-007 -3.55878e-006 2.38542e-015 2.38542e-015 -3.18055e-015 -2.02599e-007 -3.61069e-007 1.01856e-007 -1.32823e-007 -1.49531e-006 -2.01461e-006 -6.08151e-007 -8.56529e-007 -3.55878e-006 -2.02599e-007 -3.61069e-007 1.01856e-007 -1.32823e-007 -1.49531e-006 -2.01461e-006 -6.08151e-007 -8.56529e-007 -3.55878e-006 -21.1581 -5.95031 -1.94405 -29.9828 -5.67458 -1.79633 -76.3828 67.6087 -19.3064 6.49223 2.60876 0.0253996 -1.1821e-007 -4.0104e-007 8.57593e-008 4.77083e-015 -3.18055e-015 -9.54166e-015 7.95139e-016 -6.36111e-015 -2.22639e-014 -3.18055e-015 -7.95139e-016 3.18055e-015 -1.1821e-007 -4.0104e-007 8.57593e-008 -2.78299e-015 -3.18055e-015 -0 1.19271e-015 -7.95139e-015 -1.27222e-014 -1.1821e-007 -4.0104e-007 8.57593e-008 -2.78299e-015 -3.18055e-015 -0 1.19271e-015 -7.95139e-015 -1.27222e-014 -3.18055e-015 -7.95139e-016 3.18055e-015 -1.1821e-007 -4.0104e-007 8.57593e-008 -2.78299e-015 -3.18055e-015 -0 1.19271e-015 -7.95139e-015 -1.27222e-014 -1.1821e-007 -4.0104e-007 8.57593e-008 -2.78299e-015 -3.18055e-015 -0 1.19271e-015 -7.95139e-015 -1.27222e-014 4.20597 -17.608 -19.6657 -6.49785 14.2549 2.44664 10.4755 12.5316 0.226147 -9.0428 -12.156 -28.1961 8.41022 57.0441 -10.0308 -10.561 28.749 0.234125 
1.42165 3.93838 -11.1959 -47.1291 -89.9994 -0.12942 0.0322348 -0.308893 -9.88353 0.0109367 -0.618727 -19.7673 0.01095 -0.618715 -19.7673 0.994153 18.1892 -20.5404 20.1596 -10.4509 3.70053 -28.3861 -0.712984 2.45504 -43.6023 7.80242 -41.9968 -15.7047 23.8205 4.76787 -22.0099 16.5078 -8.1942 7.95139e-016 4.77083e-015 -6.36111e-015 2.0237e-007 3.61367e-007 -1.01247e-007 -3.18055e-015 1.59028e-015 -0 2.38542e-015 7.95139e-016 -6.36111e-015 6.36111e-015 9.54166e-015 3.18055e-015 2.0237e-007 3.61367e-007 -1.01247e-007 3.18055e-015 4.77083e-015 -0 6.36111e-015 9.54166e-015 3.18055e-015 2.0237e-007 3.61367e-007 -1.01247e-007 3.18055e-015 4.77083e-015 -0 2.38542e-015 7.95139e-016 -6.36111e-015 6.36111e-015 9.54166e-015 3.18055e-015 2.0237e-007 3.61367e-007 -1.01247e-007 3.18055e-015 4.77083e-015 -0 6.36111e-015 9.54166e-015 3.18055e-015 2.0237e-007 3.61367e-007 -1.01247e-007 3.18055e-015 4.77083e-015 -0 -21.1581 -5.95031 -1.94405 -29.9828 -5.67458 -1.79633 -76.3828 67.6087 -19.3064 6.49223 2.60876 0.0253996 -1.1821e-007 -4.0104e-007 8.57593e-008 4.77083e-015 -3.18055e-015 -9.54166e-015 7.95139e-016 -6.36111e-015 -2.22639e-014 -3.18055e-015 -7.95139e-016 3.18055e-015 -1.1821e-007 -4.0104e-007 8.57593e-008 -2.78299e-015 -3.18055e-015 -0 1.19271e-015 -7.95139e-015 -1.27222e-014 -1.1821e-007 -4.0104e-007 8.57593e-008 -2.78299e-015 -3.18055e-015 -0 1.19271e-015 -7.95139e-015 -1.27222e-014 -3.18055e-015 -7.95139e-016 3.18055e-015 -1.1821e-007 -4.0104e-007 8.57593e-008 -2.78299e-015 -3.18055e-015 -0 1.19271e-015 -7.95139e-015 -1.27222e-014 -1.1821e-007 -4.0104e-007 8.57593e-008 -2.78299e-015 -3.18055e-015 -0 1.19271e-015 -7.95139e-015 -1.27222e-014 4.25287 -17.5995 -19.5131 -6.49726 14.248 2.44387 10.4679 12.5373 0.226982 -9.04199 -12.1554 -28.1963 8.4102 57.0442 -10.031 -10.5614 28.748 0.234039 
1.42138 3.93978 -11.1956 -47.1291 -89.9994 -0.12942 0.0322254 -0.308882 -9.88353 0.010936 -0.618729 -19.7673 0.0109489 -0.618717 -19.7673 0.942751 18.1923 -20.5272 20.0344 -10.4602 3.67708 -28.3861 -0.712985 2.45504 -43.6023 7.8024 -41.9968 -15.8945 23.8725 4.781 -22.0099 16.5077 -8.19422 2.38542e-015 1.59028e-015 3.18055e-015 8.83444e-007 -1.67121e-006 -3.62619e-006 3.95038e-007 5.75432e-008 6.4879e-007 7.95139e-016 -1.59028e-015 -0 -6.36111e-015 3.97569e-015 6.36111e-015 8.83444e-007 -1.67121e-006 -3.62619e-006 3.95038e-007 5.75432e-008 6.4879e-007 -6.36111e-015 3.97569e-015 6.36111e-015 8.83444e-007 -1.67121e-006 -3.62619e-006 3.95038e-007 5.75432e-008 6.4879e-007 7.95139e-016 -1.59028e-015 -0 -6.36111e-015 3.97569e-015 6.36111e-015 8.83444e-007 -1.67121e-006 -3.62619e-006 3.95038e-007 5.75432e-008 6.4879e-007 -6.36111e-015 3.97569e-015 6.36111e-015 8.83444e-007 -1.67121e-006 -3.62619e-006 3.95038e-007 5.75432e-008 6.4879e-007 -21.1581 -5.95031 -1.94405 -29.9828 -5.67458 -1.79632 -76.3832 67.6087 -19.3059 6.49224 2.60876 0.0253927 -1.1821e-007 -4.0104e-007 8.57588e-008 2.40222e-007 1.47323e-007 1.32618e-006 3.18055e-015 -3.18055e-015 -3.18055e-015 1.98785e-015 -7.95139e-016 -0 -1.1821e-007 -4.0104e-007 8.57588e-008 2.40222e-007 1.47323e-007 1.32618e-006 -1.07344e-014 -7.95139e-016 -0 -1.1821e-007 -4.0104e-007 8.57588e-008 2.40222e-007 1.47323e-007 1.32618e-006 -1.07344e-014 -7.95139e-016 -0 1.98785e-015 -7.95139e-016 -0 -1.1821e-007 -4.0104e-007 8.57588e-008 2.40222e-007 1.47323e-007 1.32618e-006 -1.07344e-014 -7.95139e-016 -0 -1.1821e-007 -4.0104e-007 8.57588e-008 2.40222e-007 1.47323e-007 1.32618e-006 -1.07344e-014 -7.95139e-016 -0 4.29976 -17.591 -19.3604 -6.49666 14.2409 2.44112 10.4603 12.543 0.227826 -9.04115 -12.1546 -28.1964 8.41016 57.044 -10.0311 -10.5617 28.747 0.233952 
1.42111 3.94119 -11.1952 -47.1291 -89.9994 -0.12942 0.0322348 -0.308893 -9.88353 0.0109367 -0.618727 -19.7673 0.01095 -0.618715 -19.7673 0.891273 18.1946 -20.514 19.9091 -10.4694 3.65363 -28.3861 -0.712984 2.45504 -43.6023 7.80243 -41.9968 -16.0845 23.9245 4.7943 -22.0099 16.5078 -8.1942 2.03569e-006 1.04572e-006 2.19241e-006 -1.04402e-006 1.53157e-006 -1.15897e-007 -1.22804e-006 4.0212e-007 -2.59252e-006 7.95139e-016 -6.36111e-015 -9.54166e-015 2.03569e-006 1.04572e-006 2.19241e-006 -1.04402e-006 1.53157e-006 -1.15897e-007 -1.22804e-006 4.0212e-007 -2.59252e-006 2.03569e-006 1.04572e-006 2.19241e-006 -1.04402e-006 1.53157e-006 -1.15897e-007 -1.22804e-006 4.0212e-007 -2.59252e-006 7.95139e-016 -6.36111e-015 -9.54166e-015 2.03569e-006 1.04572e-006 2.19241e-006 -1.04402e-006 1.53157e-006 -1.15897e-007 -1.22804e-006 4.0212e-007 -2.59252e-006 2.03569e-006 1.04572e-006 2.19241e-006 -1.04402e-006 1.53157e-006 -1.15897e-007 -1.22804e-006 4.0212e-007 -2.59252e-006 -21.1581 -5.95031 -1.94405 -29.9828 -5.67459 -1.79633 -76.3828 67.6087 -19.3064 6.49223 2.60876 0.0253926 -1.96258e-006 -7.55228e-008 -1.20678e-006 -4.77083e-015 2.78299e-014 -9.54166e-015 -7.95139e-016 2.46493e-014 -9.54166e-015 -3.18055e-015 -7.95139e-016 -6.36111e-015 -1.96258e-006 -7.55228e-008 -1.20678e-006 -4.77083e-015 2.54444e-014 -6.36111e-015 -7.95139e-016 2.54444e-014 -9.54166e-015 -1.96258e-006 -7.55228e-008 -1.20678e-006 -4.77083e-015 2.54444e-014 -6.36111e-015 -7.95139e-016 2.54444e-014 -9.54166e-015 -3.18055e-015 -7.95139e-016 -6.36111e-015 -1.96258e-006 -7.55228e-008 -1.20678e-006 -4.77083e-015 2.54444e-014 -6.36111e-015 -7.95139e-016 2.54444e-014 -9.54166e-015 -1.96258e-006 -7.55228e-008 -1.20678e-006 -4.77083e-015 2.54444e-014 -6.36111e-015 -7.95139e-016 2.54444e-014 -9.54166e-015 4.34663 -17.5822 -19.2078 -6.49606 14.2338 2.43833 10.4527 12.5488 0.228666 -9.04032 -12.154 -28.1966 8.41019 57.0441 -10.0313 -10.5622 28.746 0.233871 
